%FSAX24Y24*%
%MOIN*%
G70*
G01*
G75*
G04 Layer_Color=16711935*
%ADD10R,0.2579X0.3150*%
%ADD11R,0.0800X0.0600*%
%ADD12R,0.2126X0.0945*%
%ADD13R,0.3504X0.3228*%
%ADD14C,0.0500*%
%ADD15C,0.0100*%
%ADD16C,0.0700*%
%ADD17C,0.1250*%
%ADD18C,0.0800*%
%ADD19C,0.0500*%
%ADD20C,0.0098*%
%ADD21R,0.2659X0.3230*%
%ADD22R,0.0880X0.0680*%
%ADD23R,0.2206X0.1025*%
%ADD24R,0.3584X0.3308*%
%ADD25C,0.0780*%
%ADD26C,0.1330*%
%ADD27C,0.0880*%
%ADD28C,0.0580*%
D25*
X042250Y027600D02*
D03*
X043350D02*
D03*
X032950Y034200D02*
D03*
X031850D02*
D03*
X033600Y020000D02*
D03*
X027409D02*
D03*
X046009Y040200D02*
D03*
X052200D02*
D03*
X030200D02*
D03*
X024009D02*
D03*
X054800Y020600D02*
D03*
X044640D02*
D03*
D26*
X065600Y041011D02*
D03*
Y039200D02*
D03*
X037800Y037200D02*
D03*
Y039011D02*
D03*
X039000Y022811D02*
D03*
Y021000D02*
D03*
X015000Y019600D02*
D03*
Y021411D02*
D03*
X013200Y042011D02*
D03*
Y040200D02*
D03*
X066400Y018600D02*
D03*
Y020411D02*
D03*
D27*
X037800Y011800D02*
D03*
X039800D02*
D03*
X038800Y048200D02*
D03*
X036800D02*
D03*
X066800Y028200D02*
D03*
Y030200D02*
D03*
X013200Y031000D02*
D03*
Y029000D02*
D03*
D28*
X042913Y030906D02*
D03*
M02*
