M48
;Layer_Color=9474304
;FILE_FORMAT=2:4
INCH
;TYPE=PLATED
T1F00S00C0.0280
T2F00S00C0.0500
T3F00S00C0.0600
T4F00S00C0.1000
%
T01
X042913Y030906
T02
X054800Y020600
X044640
X043350Y027600
X042250
X033600Y020000
X027409
X030200Y040200
X024009
X031850Y034200
X032950
X046009Y040200
X052200
T03
X037800Y011800
X039800
X066800Y028200
Y030200
X013200Y031000
Y029000
X036800Y048200
X038800
T04
X066400Y018600
Y020411
X039000Y021000
Y022811
X015000Y021411
Y019600
X013200Y040200
Y042011
X037800Y039011
Y037200
X065600Y039200
Y041011
M30
