%FSAX24Y24*%
%MOIN*%
G70*
G01*
G75*
%ADD10R,0.2579X0.3150*%
%ADD11R,0.0800X0.0600*%
%ADD12R,0.2126X0.0945*%
%ADD13R,0.3504X0.3228*%
%ADD14C,0.0500*%
%ADD15C,0.0100*%
%ADD16C,0.0700*%
%ADD17C,0.1250*%
%ADD18C,0.0800*%
%ADD19C,0.0500*%
%ADD20C,0.0098*%
D15*
X056299Y031299D02*
G03*
X056299Y031299I-000197J000000D01*
G01*
X055790Y031890D02*
G03*
X055790Y031890I-000278J000000D01*
G01*
X055003D02*
G03*
X055003Y031890I-000278J000000D01*
G01*
X054331Y031299D02*
G03*
X054331Y031299I-000197J000000D01*
G01*
X055741Y030512D02*
G03*
X055741Y030512I-000622J000000D01*
G01*
X041700Y028150D02*
X043900D01*
Y027050D02*
Y028150D01*
X041700Y027050D02*
X043900D01*
X041700D02*
Y028150D01*
X031300Y033650D02*
Y034750D01*
Y033650D02*
X033500D01*
Y034750D01*
X031300D02*
X033500D01*
X017500Y043850D02*
X020950D01*
Y033850D02*
Y043850D01*
X017500Y033850D02*
X020950D01*
X017500D02*
Y043850D01*
X033400Y027100D02*
Y028100D01*
Y027100D02*
X035800D01*
X033400Y028100D02*
X035800D01*
Y027100D02*
Y028100D01*
X019150Y021850D02*
X025600D01*
X025650Y021800D01*
Y017600D02*
Y021800D01*
X019150Y017600D02*
X025650D01*
X019150D02*
Y021850D01*
X044600Y033700D02*
Y034700D01*
X042200D02*
X044600D01*
X042200Y033700D02*
X044600D01*
X042200D02*
Y034700D01*
X055550Y038000D02*
Y042250D01*
Y038000D02*
X062050D01*
Y042200D01*
X062000Y042250D02*
X062050Y042200D01*
X055550Y042250D02*
X062000D01*
X055750Y018850D02*
X062200D01*
X062250Y018800D01*
Y014600D02*
Y018800D01*
X055750Y014600D02*
X062250D01*
X055750D02*
Y018850D01*
Y022400D02*
Y026650D01*
Y022400D02*
X062250D01*
Y026600D01*
X062200Y026650D02*
X062250Y026600D01*
X055750Y026650D02*
X062200D01*
X066500Y037650D02*
Y042550D01*
X064700D02*
X066500D01*
X064700Y037650D02*
X066500D01*
X064700D02*
Y042550D01*
X036900Y035650D02*
Y040550D01*
Y035650D02*
X038700D01*
X036900Y040550D02*
X038700D01*
Y035650D02*
Y040550D01*
X039900Y019450D02*
Y024350D01*
X038100D02*
X039900D01*
X038100Y019450D02*
X039900D01*
X038100D02*
Y024350D01*
X014100Y018050D02*
Y022950D01*
Y018050D02*
X015900D01*
X014100Y022950D02*
X015900D01*
Y018050D02*
Y022950D01*
X014100Y038650D02*
Y043550D01*
X012300D02*
X014100D01*
X012300Y038650D02*
X014100D01*
X012300D02*
Y043550D01*
X065500Y017050D02*
Y021950D01*
Y017050D02*
X067300D01*
X065500Y021950D02*
X067300D01*
Y017050D02*
Y021950D01*
X031800Y015100D02*
Y024700D01*
X029250Y015100D02*
X031800D01*
X029250Y024700D02*
X031800D01*
X029250Y015100D02*
Y024700D01*
X026850Y019400D02*
X029250D01*
X026850D02*
Y020600D01*
X029250D01*
X031800Y019400D02*
X034150D01*
Y020600D01*
X031800D02*
X034150D01*
X050400Y040800D02*
X052750D01*
Y039600D02*
Y040800D01*
X050400Y039600D02*
X052750D01*
X045450Y040800D02*
X047850D01*
X045450Y039600D02*
Y040800D01*
Y039600D02*
X047850D01*
Y035300D02*
Y044900D01*
X050400D01*
X047850Y035300D02*
X050400D01*
Y044900D01*
X028400Y035300D02*
Y044900D01*
X025850Y035300D02*
X028400D01*
X025850Y044900D02*
X028400D01*
X025850Y035300D02*
Y044900D01*
X023450Y039600D02*
X025850D01*
X023450D02*
Y040800D01*
X025850D01*
X028400Y039600D02*
X030750D01*
Y040800D01*
X028400D02*
X030750D01*
X051650Y021200D02*
X055350D01*
Y020000D02*
Y021200D01*
X051650Y020000D02*
X055350D01*
X044100Y021200D02*
X047800D01*
X044100Y020000D02*
Y021200D01*
Y020000D02*
X047800D01*
Y013750D02*
Y028150D01*
Y013750D02*
X051650D01*
Y028150D01*
X047800D02*
X051650D01*
X037200Y011200D02*
X040400D01*
X037200Y012400D02*
X040400D01*
Y011200D02*
Y012400D01*
X037200Y011200D02*
Y012400D01*
X036200Y047600D02*
Y048800D01*
X039400Y047600D02*
Y048800D01*
X036200D02*
X039400D01*
X036200Y047600D02*
X039400D01*
X066200Y030800D02*
X067400D01*
X066200Y027600D02*
X067400D01*
X066200D02*
Y030800D01*
X067400Y027600D02*
Y030800D01*
X013800Y028400D02*
Y031600D01*
X012600Y028400D02*
Y031600D01*
Y028400D02*
X013800D01*
X012600Y031600D02*
X013800D01*
X035827Y046078D02*
Y045079D01*
X036493D01*
X037326Y046078D02*
X036993D01*
X036826Y045912D01*
Y045245D01*
X036993Y045079D01*
X037326D01*
X037493Y045245D01*
Y045912D01*
X037326Y046078D01*
X037826Y045079D02*
Y045745D01*
X038159Y046078D01*
X038493Y045745D01*
Y045079D01*
Y045579D01*
X037826D01*
X038826Y046078D02*
Y045079D01*
X039326D01*
X039492Y045245D01*
Y045912D01*
X039326Y046078D01*
X038826D01*
X039825Y045079D02*
X040159D01*
X039992D01*
Y046078D01*
X039825Y045912D01*
X036811Y014976D02*
Y013976D01*
X037477D01*
X038311Y014976D02*
X037977D01*
X037811Y014809D01*
Y014143D01*
X037977Y013976D01*
X038311D01*
X038477Y014143D01*
Y014809D01*
X038311Y014976D01*
X038810Y013976D02*
Y014643D01*
X039144Y014976D01*
X039477Y014643D01*
Y013976D01*
Y014476D01*
X038810D01*
X039810Y014976D02*
Y013976D01*
X040310D01*
X040477Y014143D01*
Y014809D01*
X040310Y014976D01*
X039810D01*
X041476Y013976D02*
X040810D01*
X041476Y014643D01*
Y014809D01*
X041310Y014976D01*
X040976D01*
X040810Y014809D01*
X032290Y035736D02*
X032190Y035836D01*
X031990D01*
X031890Y035736D01*
Y035336D01*
X031990Y035236D01*
X032190D01*
X032290Y035336D01*
X032490Y035236D02*
X032689D01*
X032590D01*
Y035836D01*
X032490Y035736D01*
X043313D02*
X043213Y035836D01*
X043013D01*
X042913Y035736D01*
Y035336D01*
X043013Y035236D01*
X043213D01*
X043313Y035336D01*
X043913Y035236D02*
X043513D01*
X043913Y035636D01*
Y035736D01*
X043813Y035836D01*
X043613D01*
X043513Y035736D01*
X034461Y026287D02*
X034361Y026387D01*
X034161D01*
X034061Y026287D01*
Y025887D01*
X034161Y025787D01*
X034361D01*
X034461Y025887D01*
X034661Y026287D02*
X034761Y026387D01*
X034961D01*
X035061Y026287D01*
Y026187D01*
X034961Y026087D01*
X034861D01*
X034961D01*
X035061Y025987D01*
Y025887D01*
X034961Y025787D01*
X034761D01*
X034661Y025887D01*
X042738Y026484D02*
X042638Y026584D01*
X042439D01*
X042339Y026484D01*
Y026084D01*
X042439Y025984D01*
X042638D01*
X042738Y026084D01*
X043238Y025984D02*
Y026584D01*
X042938Y026284D01*
X043338D01*
X015551Y030527D02*
X015884D01*
X015718D01*
Y029528D01*
X015551D01*
X015884D01*
X016384D02*
Y030527D01*
X017051Y029528D01*
Y030527D01*
X017384Y029528D02*
X017717D01*
X017551D01*
Y030527D01*
X017384Y030361D01*
X062008Y029937D02*
X062341D01*
X062174D01*
Y028937D01*
X062008D01*
X062341D01*
X062841D02*
Y029937D01*
X063507Y028937D01*
Y029937D01*
X064507Y028937D02*
X063841D01*
X064507Y029603D01*
Y029770D01*
X064340Y029937D01*
X064007D01*
X063841Y029770D01*
X026772Y046663D02*
Y046063D01*
X027172D01*
X027371D02*
X027571D01*
X027471D01*
Y046663D01*
X027371Y046563D01*
X048622Y046663D02*
Y046063D01*
X049022D01*
X049622D02*
X049222D01*
X049622Y046463D01*
Y046563D01*
X049522Y046663D01*
X049322D01*
X049222Y046563D01*
X030118Y026781D02*
Y026181D01*
X030518D01*
X030718Y026681D02*
X030818Y026781D01*
X031018D01*
X031118Y026681D01*
Y026581D01*
X031018Y026481D01*
X030918D01*
X031018D01*
X031118Y026381D01*
Y026281D01*
X031018Y026181D01*
X030818D01*
X030718Y026281D01*
X049213Y030127D02*
Y029528D01*
X049612D01*
X050112D02*
Y030127D01*
X049812Y029827D01*
X050212D01*
X018898Y044488D02*
Y045088D01*
X019198D01*
X019298Y044988D01*
Y044788D01*
X019198Y044688D01*
X018898D01*
X019098D02*
X019298Y044488D01*
X019497D02*
X019697D01*
X019597D01*
Y045088D01*
X019497Y044988D01*
X058268Y042717D02*
Y043316D01*
X058568D01*
X058668Y043216D01*
Y043016D01*
X058568Y042916D01*
X058268D01*
X058468D02*
X058668Y042717D01*
X059267D02*
X058868D01*
X059267Y043116D01*
Y043216D01*
X059167Y043316D01*
X058967D01*
X058868Y043216D01*
X022047Y022441D02*
Y023041D01*
X022347D01*
X022447Y022941D01*
Y022741D01*
X022347Y022641D01*
X022047D01*
X022247D02*
X022447Y022441D01*
X022647Y022941D02*
X022747Y023041D01*
X022947D01*
X023047Y022941D01*
Y022841D01*
X022947Y022741D01*
X022847D01*
X022947D01*
X023047Y022641D01*
Y022541D01*
X022947Y022441D01*
X022747D01*
X022647Y022541D01*
X058268Y027165D02*
Y027765D01*
X058568D01*
X058668Y027665D01*
Y027465D01*
X058568Y027365D01*
X058268D01*
X058468D02*
X058668Y027165D01*
X059167D02*
Y027765D01*
X058868Y027465D01*
X059267D01*
X059467Y027165D02*
Y027565D01*
X059667Y027765D01*
X059867Y027565D01*
Y027165D01*
Y027465D01*
X059467D01*
X058268Y019291D02*
Y019891D01*
X058568D01*
X058668Y019791D01*
Y019591D01*
X058568Y019491D01*
X058268D01*
X058468D02*
X058668Y019291D01*
X059167D02*
Y019891D01*
X058868Y019591D01*
X059267D01*
X059467Y019891D02*
Y019291D01*
X059767D01*
X059867Y019391D01*
Y019491D01*
X059767Y019591D01*
X059467D01*
X059767D01*
X059867Y019691D01*
Y019791D01*
X059767Y019891D01*
X059467D01*
X012998Y047950D02*
X012898Y048050D01*
X012698D01*
X012598Y047950D01*
Y047850D01*
X012698Y047750D01*
X012898D01*
X012998Y047650D01*
Y047550D01*
X012898Y047450D01*
X012698D01*
X012598Y047550D01*
X013198Y048050D02*
Y047450D01*
X013398Y047650D01*
X013598Y047450D01*
Y048050D01*
X013798Y047450D02*
X013998D01*
X013898D01*
Y048050D01*
X013798Y047950D01*
X014554Y013689D02*
X014454Y013789D01*
X014254D01*
X014154Y013689D01*
Y013589D01*
X014254Y013489D01*
X014454D01*
X014554Y013389D01*
Y013289D01*
X014454Y013189D01*
X014254D01*
X014154Y013289D01*
X014754Y013789D02*
Y013189D01*
X014954Y013389D01*
X015154Y013189D01*
Y013789D01*
X015754Y013189D02*
X015354D01*
X015754Y013589D01*
Y013689D01*
X015654Y013789D01*
X015454D01*
X015354Y013689D01*
X041935Y017829D02*
X041835Y017929D01*
X041635D01*
X041535Y017829D01*
Y017729D01*
X041635Y017629D01*
X041835D01*
X041935Y017529D01*
Y017429D01*
X041835Y017329D01*
X041635D01*
X041535Y017429D01*
X042135Y017929D02*
Y017329D01*
X042335Y017529D01*
X042535Y017329D01*
Y017929D01*
X042735Y017829D02*
X042835Y017929D01*
X043035D01*
X043135Y017829D01*
Y017729D01*
X043035Y017629D01*
X042935D01*
X043035D01*
X043135Y017529D01*
Y017429D01*
X043035Y017329D01*
X042835D01*
X042735Y017429D01*
X065951Y012901D02*
X065851Y013001D01*
X065651D01*
X065551Y012901D01*
Y012801D01*
X065651Y012701D01*
X065851D01*
X065951Y012602D01*
Y012502D01*
X065851Y012402D01*
X065651D01*
X065551Y012502D01*
X066151Y013001D02*
Y012402D01*
X066351Y012602D01*
X066551Y012402D01*
Y013001D01*
X067051Y012402D02*
Y013001D01*
X066751Y012701D01*
X067151D01*
X065183Y047350D02*
X065083Y047450D01*
X064883D01*
X064783Y047350D01*
Y047250D01*
X064883Y047150D01*
X065083D01*
X065183Y047050D01*
Y046950D01*
X065083Y046850D01*
X064883D01*
X064783Y046950D01*
X065382Y047450D02*
Y046850D01*
X065582Y047050D01*
X065782Y046850D01*
Y047450D01*
X066382D02*
X065982D01*
Y047150D01*
X066182Y047250D01*
X066282D01*
X066382Y047150D01*
Y046950D01*
X066282Y046850D01*
X066082D01*
X065982Y046950D01*
X041542Y042035D02*
X041442Y042135D01*
X041242D01*
X041142Y042035D01*
Y041935D01*
X041242Y041835D01*
X041442D01*
X041542Y041735D01*
Y041635D01*
X041442Y041535D01*
X041242D01*
X041142Y041635D01*
X041742Y042135D02*
Y041535D01*
X041941Y041735D01*
X042141Y041535D01*
Y042135D01*
X042741D02*
X042541Y042035D01*
X042341Y041835D01*
Y041635D01*
X042441Y041535D01*
X042641D01*
X042741Y041635D01*
Y041735D01*
X042641Y041835D01*
X042341D01*
X022638Y030315D02*
Y030715D01*
X022838D01*
X022904Y030648D01*
Y030515D01*
X022838Y030448D01*
X022638D01*
X023238Y030715D02*
X023104D01*
X023038Y030648D01*
Y030382D01*
X023104Y030315D01*
X023238D01*
X023304Y030382D01*
Y030648D01*
X023238Y030715D01*
X023637D02*
X023504D01*
X023438Y030648D01*
Y030382D01*
X023504Y030315D01*
X023637D01*
X023704Y030382D01*
Y030648D01*
X023637Y030715D01*
X024104Y030648D02*
X024037Y030715D01*
X023904D01*
X023837Y030648D01*
Y030382D01*
X023904Y030315D01*
X024037D01*
X024104Y030382D01*
X024237Y030715D02*
Y030315D01*
Y030515D01*
X024504D01*
Y030715D01*
Y030315D01*
X024904Y030715D02*
X024637D01*
Y030315D01*
X024904D01*
X024637Y030515D02*
X024770D01*
X025304Y030648D02*
X025237Y030715D01*
X025104D01*
X025037Y030648D01*
Y030582D01*
X025104Y030515D01*
X025237D01*
X025304Y030448D01*
Y030382D01*
X025237Y030315D01*
X025104D01*
X025037Y030382D01*
X023031Y031102D02*
Y031502D01*
X023231D01*
X023298Y031436D01*
Y031302D01*
X023231Y031236D01*
X023031D01*
X023631Y031502D02*
X023498D01*
X023431Y031436D01*
Y031169D01*
X023498Y031102D01*
X023631D01*
X023698Y031169D01*
Y031436D01*
X023631Y031502D01*
X023831D02*
Y031102D01*
X023965Y031236D01*
X024098Y031102D01*
Y031502D01*
X024498D02*
X024231D01*
Y031102D01*
X024498D01*
X024231Y031302D02*
X024364D01*
X024631Y031102D02*
Y031502D01*
X024831D01*
X024898Y031436D01*
Y031302D01*
X024831Y031236D01*
X024631D01*
X024764D02*
X024898Y031102D01*
X052044Y012614D02*
X051378D01*
Y012114D01*
X051711Y012281D01*
X051878D01*
X052044Y012114D01*
Y011781D01*
X051878Y011614D01*
X051545D01*
X051378Y011781D01*
X052378Y012447D02*
X052544Y012614D01*
X052877D01*
X053044Y012447D01*
Y011781D01*
X052877Y011614D01*
X052544D01*
X052378Y011781D01*
Y012447D01*
X054377Y011614D02*
Y012614D01*
X054710Y012281D01*
X055043Y012614D01*
Y011614D01*
X055377Y012614D02*
X055710D01*
X055543D01*
Y011614D01*
X055377D01*
X055710D01*
X056210Y012614D02*
Y011614D01*
X056876D01*
X057876Y012614D02*
X057209D01*
Y011614D01*
X057876D01*
X057209Y012114D02*
X057543D01*
X058876Y012447D02*
X058709Y012614D01*
X058376D01*
X058209Y012447D01*
Y012281D01*
X058376Y012114D01*
X058709D01*
X058876Y011947D01*
Y011781D01*
X058709Y011614D01*
X058376D01*
X058209Y011781D01*
X051848Y047638D02*
X051181D01*
X051848Y048304D01*
Y048471D01*
X051681Y048637D01*
X051348D01*
X051181Y048471D01*
X052847Y048637D02*
X052181D01*
Y048138D01*
X052514Y048304D01*
X052681D01*
X052847Y048138D01*
Y047804D01*
X052681Y047638D01*
X052347D01*
X052181Y047804D01*
X054180Y047638D02*
Y048637D01*
X054513Y048304D01*
X054847Y048637D01*
Y047638D01*
X055180Y048637D02*
X055513D01*
X055346D01*
Y047638D01*
X055180D01*
X055513D01*
X056013Y048637D02*
Y047638D01*
X056679D01*
X057679Y048637D02*
X057013D01*
Y047638D01*
X057679D01*
X057013Y048138D02*
X057346D01*
X058679Y048471D02*
X058512Y048637D01*
X058179D01*
X058012Y048471D01*
Y048304D01*
X058179Y048138D01*
X058512D01*
X058679Y047971D01*
Y047804D01*
X058512Y047638D01*
X058179D01*
X058012Y047804D01*
X020942Y011614D02*
X020276D01*
X020942Y012281D01*
Y012447D01*
X020775Y012614D01*
X020442D01*
X020276Y012447D01*
X021942Y012614D02*
X021275D01*
Y012114D01*
X021608Y012281D01*
X021775D01*
X021942Y012114D01*
Y011781D01*
X021775Y011614D01*
X021442D01*
X021275Y011781D01*
X023275Y011614D02*
Y012614D01*
X023608Y012281D01*
X023941Y012614D01*
Y011614D01*
X024274Y012614D02*
X024608D01*
X024441D01*
Y011614D01*
X024274D01*
X024608D01*
X025107Y012614D02*
Y011614D01*
X025774D01*
X026773Y012614D02*
X026107D01*
Y011614D01*
X026773D01*
X026107Y012114D02*
X026440D01*
X027773Y012447D02*
X027607Y012614D01*
X027273D01*
X027107Y012447D01*
Y012281D01*
X027273Y012114D01*
X027607D01*
X027773Y011947D01*
Y011781D01*
X027607Y011614D01*
X027273D01*
X027107Y011781D01*
X020472Y047638D02*
X020806D01*
X020639D01*
Y048637D01*
X020472Y048471D01*
X021305D02*
X021472Y048637D01*
X021805D01*
X021972Y048471D01*
Y047804D01*
X021805Y047638D01*
X021472D01*
X021305Y047804D01*
Y048471D01*
X023305Y047638D02*
Y048637D01*
X023638Y048304D01*
X023971Y048637D01*
Y047638D01*
X024305Y048637D02*
X024638D01*
X024471D01*
Y047638D01*
X024305D01*
X024638D01*
X025138Y048637D02*
Y047638D01*
X025804D01*
X026804Y048637D02*
X026137D01*
Y047638D01*
X026804D01*
X026137Y048138D02*
X026470D01*
X027803Y048471D02*
X027637Y048637D01*
X027304D01*
X027137Y048471D01*
Y048304D01*
X027304Y048138D01*
X027637D01*
X027803Y047971D01*
Y047804D01*
X027637Y047638D01*
X027304D01*
X027137Y047804D01*
X030906Y031315D02*
X031572D01*
X031239D01*
Y030315D01*
X031905D02*
Y031315D01*
X032405D01*
X032572Y031148D01*
Y030815D01*
X032405Y030648D01*
X031905D01*
X032238D02*
X032572Y030315D01*
X032905D02*
Y030981D01*
X033238Y031315D01*
X033571Y030981D01*
Y030315D01*
Y030815D01*
X032905D01*
X033905Y030315D02*
Y031315D01*
X034571Y030315D01*
Y031315D01*
X035571Y031148D02*
X035404Y031315D01*
X035071D01*
X034904Y031148D01*
Y030981D01*
X035071Y030815D01*
X035404D01*
X035571Y030648D01*
Y030482D01*
X035404Y030315D01*
X035071D01*
X034904Y030482D01*
X035904Y030315D02*
Y031315D01*
X036237Y030981D01*
X036570Y031315D01*
Y030315D01*
X036904Y031315D02*
X037237D01*
X037070D01*
Y030315D01*
X036904D01*
X037237D01*
X038403Y031148D02*
X038236Y031315D01*
X037903D01*
X037737Y031148D01*
Y030981D01*
X037903Y030815D01*
X038236D01*
X038403Y030648D01*
Y030482D01*
X038236Y030315D01*
X037903D01*
X037737Y030482D01*
X039403Y031148D02*
X039236Y031315D01*
X038903D01*
X038736Y031148D01*
Y030981D01*
X038903Y030815D01*
X039236D01*
X039403Y030648D01*
Y030482D01*
X039236Y030315D01*
X038903D01*
X038736Y030482D01*
X039736Y031315D02*
X040069D01*
X039903D01*
Y030315D01*
X039736D01*
X040069D01*
X041069Y031315D02*
X040736D01*
X040569Y031148D01*
Y030482D01*
X040736Y030315D01*
X041069D01*
X041236Y030482D01*
Y031148D01*
X041069Y031315D01*
X041569Y030315D02*
Y031315D01*
X042235Y030315D01*
Y031315D01*
X043568D02*
Y030315D01*
X044235D01*
X044568Y031315D02*
X044901D01*
X044734D01*
Y030315D01*
X044568D01*
X044901D01*
X045401D02*
Y031315D01*
X046067Y030315D01*
Y031315D01*
X047067D02*
X046401D01*
Y030315D01*
X047067D01*
X046401Y030815D02*
X046734D01*
X048067Y031148D02*
X047900Y031315D01*
X047567D01*
X047400Y031148D01*
Y030981D01*
X047567Y030815D01*
X047900D01*
X048067Y030648D01*
Y030482D01*
X047900Y030315D01*
X047567D01*
X047400Y030482D01*
D20*
X020559Y021187D02*
G03*
X020559Y021187I-000049J000000D01*
G01*
X056959Y041587D02*
G03*
X056959Y041587I-000049J000000D01*
G01*
X057159Y018187D02*
G03*
X057159Y018187I-000049J000000D01*
G01*
Y025987D02*
G03*
X057159Y025987I-000049J000000D01*
G01*
M02*
