%FSAX24Y24*%
%MOIN*%
G70*
G01*
G75*
G04 Layer_Physical_Order=2*
G04 Layer_Color=16711680*
%ADD10R,0.2579X0.3150*%
%ADD11R,0.0800X0.0600*%
%ADD12R,0.2126X0.0945*%
%ADD13R,0.3504X0.3228*%
%ADD14C,0.0500*%
%ADD15C,0.0100*%
%ADD16C,0.0700*%
%ADD17C,0.1250*%
%ADD18C,0.0800*%
%ADD19C,0.0500*%
G36*
X068898Y010827D02*
X010827D01*
Y049213D01*
X068898D01*
Y010827D01*
D02*
G37*
%LPC*%
G36*
X042200Y027550D02*
X041803D01*
X041812Y027483D01*
X041857Y027373D01*
X041929Y027279D01*
X042023Y027207D01*
X042133Y027162D01*
X042200Y027153D01*
Y027550D01*
D02*
G37*
G36*
X042697D02*
X042300D01*
Y027153D01*
X042367Y027162D01*
X042477Y027207D01*
X042571Y027279D01*
X042643Y027373D01*
X042688Y027483D01*
X042697Y027550D01*
D02*
G37*
G36*
X042200Y028047D02*
X042133Y028038D01*
X042023Y027993D01*
X041929Y027921D01*
X041857Y027827D01*
X041812Y027717D01*
X041803Y027650D01*
X042200D01*
Y028047D01*
D02*
G37*
G36*
X015000Y022140D02*
X014858Y022126D01*
X014721Y022084D01*
X014595Y022017D01*
X014485Y021926D01*
X014394Y021816D01*
X014327Y021690D01*
X014285Y021553D01*
X014271Y021411D01*
X014285Y021269D01*
X014327Y021132D01*
X014394Y021006D01*
X014485Y020896D01*
X014595Y020805D01*
X014721Y020738D01*
X014858Y020697D01*
X015000Y020683D01*
X015142Y020697D01*
X015279Y020738D01*
X015405Y020805D01*
X015515Y020896D01*
X015606Y021006D01*
X015673Y021132D01*
X015715Y021269D01*
X015729Y021411D01*
X015715Y021553D01*
X015673Y021690D01*
X015606Y021816D01*
X015515Y021926D01*
X015405Y022017D01*
X015279Y022084D01*
X015142Y022126D01*
X015000Y022140D01*
D02*
G37*
G36*
X039000Y023540D02*
X038858Y023526D01*
X038721Y023484D01*
X038595Y023417D01*
X038485Y023326D01*
X038394Y023216D01*
X038327Y023090D01*
X038285Y022953D01*
X038271Y022811D01*
X038285Y022669D01*
X038327Y022532D01*
X038394Y022406D01*
X038485Y022296D01*
X038595Y022205D01*
X038721Y022138D01*
X038858Y022097D01*
X039000Y022083D01*
X039142Y022097D01*
X039279Y022138D01*
X039405Y022205D01*
X039515Y022296D01*
X039606Y022406D01*
X039673Y022532D01*
X039715Y022669D01*
X039729Y022811D01*
X039715Y022953D01*
X039673Y023090D01*
X039606Y023216D01*
X039515Y023326D01*
X039405Y023417D01*
X039279Y023484D01*
X039142Y023526D01*
X039000Y023540D01*
D02*
G37*
G36*
X043350Y028054D02*
X043233Y028038D01*
X043123Y027993D01*
X043029Y027921D01*
X042957Y027827D01*
X042912Y027717D01*
X042896Y027600D01*
X042912Y027483D01*
X042957Y027373D01*
X043029Y027279D01*
X043123Y027207D01*
X043233Y027162D01*
X043350Y027146D01*
X043467Y027162D01*
X043577Y027207D01*
X043671Y027279D01*
X043743Y027373D01*
X043788Y027483D01*
X043804Y027600D01*
X043788Y027717D01*
X043743Y027827D01*
X043671Y027921D01*
X043577Y027993D01*
X043467Y028038D01*
X043350Y028054D01*
D02*
G37*
G36*
X042300Y028047D02*
Y027650D01*
X042697D01*
X042688Y027717D01*
X042643Y027827D01*
X042571Y027921D01*
X042477Y027993D01*
X042367Y028038D01*
X042300Y028047D01*
D02*
G37*
G36*
X066850Y028698D02*
Y028250D01*
X067298D01*
X067287Y028331D01*
X067237Y028452D01*
X067157Y028557D01*
X067052Y028637D01*
X066931Y028687D01*
X066850Y028698D01*
D02*
G37*
G36*
X013150Y028950D02*
X012702D01*
X012713Y028869D01*
X012763Y028748D01*
X012843Y028643D01*
X012948Y028563D01*
X013069Y028513D01*
X013150Y028502D01*
Y028950D01*
D02*
G37*
G36*
X013698D02*
X013250D01*
Y028502D01*
X013331Y028513D01*
X013452Y028563D01*
X013557Y028643D01*
X013637Y028748D01*
X013687Y028869D01*
X013698Y028950D01*
D02*
G37*
G36*
X066750Y028150D02*
X066302D01*
X066313Y028069D01*
X066363Y027948D01*
X066443Y027843D01*
X066548Y027763D01*
X066669Y027713D01*
X066750Y027702D01*
Y028150D01*
D02*
G37*
G36*
X067298D02*
X066850D01*
Y027702D01*
X066931Y027713D01*
X067052Y027763D01*
X067157Y027843D01*
X067237Y027948D01*
X067287Y028069D01*
X067298Y028150D01*
D02*
G37*
G36*
X066750Y028698D02*
X066669Y028687D01*
X066548Y028637D01*
X066443Y028557D01*
X066363Y028452D01*
X066313Y028331D01*
X066302Y028250D01*
X066750D01*
Y028698D01*
D02*
G37*
G36*
X039750Y012298D02*
X039669Y012287D01*
X039548Y012237D01*
X039443Y012157D01*
X039363Y012052D01*
X039313Y011931D01*
X039302Y011850D01*
X039750D01*
Y012298D01*
D02*
G37*
G36*
X039850D02*
Y011850D01*
X040298D01*
X040287Y011931D01*
X040237Y012052D01*
X040157Y012157D01*
X040052Y012237D01*
X039931Y012287D01*
X039850Y012298D01*
D02*
G37*
G36*
X066400Y019329D02*
X066258Y019315D01*
X066121Y019273D01*
X065995Y019206D01*
X065885Y019115D01*
X065794Y019005D01*
X065727Y018879D01*
X065685Y018742D01*
X065671Y018600D01*
X065685Y018458D01*
X065727Y018321D01*
X065794Y018195D01*
X065885Y018085D01*
X065995Y017994D01*
X066121Y017927D01*
X066258Y017885D01*
X066400Y017871D01*
X066542Y017885D01*
X066679Y017927D01*
X066805Y017994D01*
X066915Y018085D01*
X067006Y018195D01*
X067073Y018321D01*
X067115Y018458D01*
X067129Y018600D01*
X067115Y018742D01*
X067073Y018879D01*
X067006Y019005D01*
X066915Y019115D01*
X066805Y019206D01*
X066679Y019273D01*
X066542Y019315D01*
X066400Y019329D01*
D02*
G37*
G36*
X037800Y012304D02*
X037669Y012287D01*
X037548Y012237D01*
X037443Y012157D01*
X037363Y012052D01*
X037313Y011931D01*
X037296Y011800D01*
X037313Y011669D01*
X037363Y011548D01*
X037443Y011443D01*
X037548Y011363D01*
X037669Y011313D01*
X037800Y011296D01*
X037931Y011313D01*
X038052Y011363D01*
X038157Y011443D01*
X038237Y011548D01*
X038287Y011669D01*
X038304Y011800D01*
X038287Y011931D01*
X038237Y012052D01*
X038157Y012157D01*
X038052Y012237D01*
X037931Y012287D01*
X037800Y012304D01*
D02*
G37*
G36*
X039750Y011750D02*
X039302D01*
X039313Y011669D01*
X039363Y011548D01*
X039443Y011443D01*
X039548Y011363D01*
X039669Y011313D01*
X039750Y011302D01*
Y011750D01*
D02*
G37*
G36*
X040298D02*
X039850D01*
Y011302D01*
X039931Y011313D01*
X040052Y011363D01*
X040157Y011443D01*
X040237Y011548D01*
X040287Y011669D01*
X040298Y011750D01*
D02*
G37*
G36*
X015000Y020329D02*
X014858Y020315D01*
X014721Y020273D01*
X014595Y020206D01*
X014485Y020115D01*
X014394Y020005D01*
X014327Y019879D01*
X014285Y019742D01*
X014271Y019600D01*
X014285Y019458D01*
X014327Y019321D01*
X014394Y019195D01*
X014485Y019085D01*
X014595Y018994D01*
X014721Y018927D01*
X014858Y018885D01*
X015000Y018871D01*
X015142Y018885D01*
X015279Y018927D01*
X015405Y018994D01*
X015515Y019085D01*
X015606Y019195D01*
X015673Y019321D01*
X015715Y019458D01*
X015729Y019600D01*
X015715Y019742D01*
X015673Y019879D01*
X015606Y020005D01*
X015515Y020115D01*
X015405Y020206D01*
X015279Y020273D01*
X015142Y020315D01*
X015000Y020329D01*
D02*
G37*
G36*
X044640Y021054D02*
X044523Y021038D01*
X044414Y020993D01*
X044320Y020921D01*
X044247Y020827D01*
X044202Y020717D01*
X044187Y020600D01*
X044202Y020483D01*
X044247Y020373D01*
X044320Y020279D01*
X044414Y020207D01*
X044523Y020162D01*
X044640Y020146D01*
X044758Y020162D01*
X044867Y020207D01*
X044961Y020279D01*
X045034Y020373D01*
X045079Y020483D01*
X045094Y020600D01*
X045079Y020717D01*
X045034Y020827D01*
X044961Y020921D01*
X044867Y020993D01*
X044758Y021038D01*
X044640Y021054D01*
D02*
G37*
G36*
X054800D02*
X054683Y021038D01*
X054573Y020993D01*
X054479Y020921D01*
X054407Y020827D01*
X054362Y020717D01*
X054346Y020600D01*
X054362Y020483D01*
X054407Y020373D01*
X054479Y020279D01*
X054573Y020207D01*
X054683Y020162D01*
X054800Y020146D01*
X054917Y020162D01*
X055027Y020207D01*
X055121Y020279D01*
X055193Y020373D01*
X055238Y020483D01*
X055254Y020600D01*
X055238Y020717D01*
X055193Y020827D01*
X055121Y020921D01*
X055027Y020993D01*
X054917Y021038D01*
X054800Y021054D01*
D02*
G37*
G36*
X039000Y021729D02*
X038858Y021715D01*
X038721Y021673D01*
X038595Y021606D01*
X038485Y021515D01*
X038394Y021405D01*
X038327Y021279D01*
X038285Y021142D01*
X038271Y021000D01*
X038285Y020858D01*
X038327Y020721D01*
X038394Y020595D01*
X038485Y020485D01*
X038595Y020394D01*
X038721Y020327D01*
X038858Y020285D01*
X039000Y020271D01*
X039142Y020285D01*
X039279Y020327D01*
X039405Y020394D01*
X039515Y020485D01*
X039606Y020595D01*
X039673Y020721D01*
X039715Y020858D01*
X039729Y021000D01*
X039715Y021142D01*
X039673Y021279D01*
X039606Y021405D01*
X039515Y021515D01*
X039405Y021606D01*
X039279Y021673D01*
X039142Y021715D01*
X039000Y021729D01*
D02*
G37*
G36*
X027409Y020454D02*
X027292Y020438D01*
X027182Y020393D01*
X027088Y020321D01*
X027016Y020227D01*
X026971Y020117D01*
X026955Y020000D01*
X026971Y019883D01*
X027016Y019773D01*
X027088Y019679D01*
X027182Y019607D01*
X027292Y019562D01*
X027409Y019546D01*
X027526Y019562D01*
X027636Y019607D01*
X027730Y019679D01*
X027802Y019773D01*
X027847Y019883D01*
X027863Y020000D01*
X027847Y020117D01*
X027802Y020227D01*
X027730Y020321D01*
X027636Y020393D01*
X027526Y020438D01*
X027409Y020454D01*
D02*
G37*
G36*
X033600D02*
X033483Y020438D01*
X033373Y020393D01*
X033279Y020321D01*
X033207Y020227D01*
X033162Y020117D01*
X033146Y020000D01*
X033162Y019883D01*
X033207Y019773D01*
X033279Y019679D01*
X033373Y019607D01*
X033483Y019562D01*
X033600Y019546D01*
X033717Y019562D01*
X033827Y019607D01*
X033921Y019679D01*
X033993Y019773D01*
X034038Y019883D01*
X034054Y020000D01*
X034038Y020117D01*
X033993Y020227D01*
X033921Y020321D01*
X033827Y020393D01*
X033717Y020438D01*
X033600Y020454D01*
D02*
G37*
G36*
X066400Y021140D02*
X066258Y021126D01*
X066121Y021084D01*
X065995Y021017D01*
X065885Y020926D01*
X065794Y020816D01*
X065727Y020690D01*
X065685Y020553D01*
X065671Y020411D01*
X065685Y020269D01*
X065727Y020132D01*
X065794Y020006D01*
X065885Y019896D01*
X065995Y019805D01*
X066121Y019738D01*
X066258Y019697D01*
X066400Y019683D01*
X066542Y019697D01*
X066679Y019738D01*
X066805Y019805D01*
X066915Y019896D01*
X067006Y020006D01*
X067073Y020132D01*
X067115Y020269D01*
X067129Y020411D01*
X067115Y020553D01*
X067073Y020690D01*
X067006Y020816D01*
X066915Y020926D01*
X066805Y021017D01*
X066679Y021084D01*
X066542Y021126D01*
X066400Y021140D01*
D02*
G37*
G36*
X013150Y029498D02*
X013069Y029487D01*
X012948Y029437D01*
X012843Y029357D01*
X012763Y029252D01*
X012713Y029131D01*
X012702Y029050D01*
X013150D01*
Y029498D01*
D02*
G37*
G36*
X030200Y040654D02*
X030083Y040638D01*
X029973Y040593D01*
X029879Y040521D01*
X029807Y040427D01*
X029762Y040317D01*
X029746Y040200D01*
X029762Y040083D01*
X029807Y039973D01*
X029879Y039879D01*
X029973Y039807D01*
X030083Y039762D01*
X030200Y039746D01*
X030317Y039762D01*
X030427Y039807D01*
X030521Y039879D01*
X030593Y039973D01*
X030638Y040083D01*
X030654Y040200D01*
X030638Y040317D01*
X030593Y040427D01*
X030521Y040521D01*
X030427Y040593D01*
X030317Y040638D01*
X030200Y040654D01*
D02*
G37*
G36*
X046009D02*
X045892Y040638D01*
X045782Y040593D01*
X045688Y040521D01*
X045616Y040427D01*
X045571Y040317D01*
X045555Y040200D01*
X045571Y040083D01*
X045616Y039973D01*
X045688Y039879D01*
X045782Y039807D01*
X045892Y039762D01*
X046009Y039746D01*
X046126Y039762D01*
X046236Y039807D01*
X046330Y039879D01*
X046402Y039973D01*
X046447Y040083D01*
X046463Y040200D01*
X046447Y040317D01*
X046402Y040427D01*
X046330Y040521D01*
X046236Y040593D01*
X046126Y040638D01*
X046009Y040654D01*
D02*
G37*
G36*
X052200D02*
X052083Y040638D01*
X051973Y040593D01*
X051879Y040521D01*
X051807Y040427D01*
X051762Y040317D01*
X051746Y040200D01*
X051762Y040083D01*
X051807Y039973D01*
X051879Y039879D01*
X051973Y039807D01*
X052083Y039762D01*
X052200Y039746D01*
X052317Y039762D01*
X052427Y039807D01*
X052521Y039879D01*
X052593Y039973D01*
X052638Y040083D01*
X052654Y040200D01*
X052638Y040317D01*
X052593Y040427D01*
X052521Y040521D01*
X052427Y040593D01*
X052317Y040638D01*
X052200Y040654D01*
D02*
G37*
G36*
X065600Y039929D02*
X065458Y039915D01*
X065321Y039873D01*
X065195Y039806D01*
X065085Y039715D01*
X064994Y039605D01*
X064927Y039479D01*
X064885Y039342D01*
X064871Y039200D01*
X064885Y039058D01*
X064927Y038921D01*
X064994Y038795D01*
X065085Y038685D01*
X065195Y038594D01*
X065321Y038527D01*
X065458Y038485D01*
X065600Y038471D01*
X065742Y038485D01*
X065879Y038527D01*
X066005Y038594D01*
X066115Y038685D01*
X066206Y038795D01*
X066273Y038921D01*
X066315Y039058D01*
X066329Y039200D01*
X066315Y039342D01*
X066273Y039479D01*
X066206Y039605D01*
X066115Y039715D01*
X066005Y039806D01*
X065879Y039873D01*
X065742Y039915D01*
X065600Y039929D01*
D02*
G37*
G36*
X013200Y040929D02*
X013058Y040915D01*
X012921Y040873D01*
X012795Y040806D01*
X012685Y040715D01*
X012594Y040605D01*
X012527Y040479D01*
X012485Y040342D01*
X012471Y040200D01*
X012485Y040058D01*
X012527Y039921D01*
X012594Y039795D01*
X012685Y039685D01*
X012795Y039594D01*
X012921Y039527D01*
X013058Y039485D01*
X013200Y039471D01*
X013342Y039485D01*
X013479Y039527D01*
X013605Y039594D01*
X013715Y039685D01*
X013806Y039795D01*
X013873Y039921D01*
X013915Y040058D01*
X013929Y040200D01*
X013915Y040342D01*
X013873Y040479D01*
X013806Y040605D01*
X013715Y040715D01*
X013605Y040806D01*
X013479Y040873D01*
X013342Y040915D01*
X013200Y040929D01*
D02*
G37*
G36*
X024009Y040654D02*
X023892Y040638D01*
X023782Y040593D01*
X023688Y040521D01*
X023616Y040427D01*
X023571Y040317D01*
X023555Y040200D01*
X023571Y040083D01*
X023616Y039973D01*
X023688Y039879D01*
X023782Y039807D01*
X023892Y039762D01*
X024009Y039746D01*
X024126Y039762D01*
X024236Y039807D01*
X024330Y039879D01*
X024402Y039973D01*
X024447Y040083D01*
X024463Y040200D01*
X024447Y040317D01*
X024402Y040427D01*
X024330Y040521D01*
X024236Y040593D01*
X024126Y040638D01*
X024009Y040654D01*
D02*
G37*
G36*
X065600Y041740D02*
X065458Y041726D01*
X065321Y041684D01*
X065195Y041617D01*
X065085Y041526D01*
X064994Y041416D01*
X064927Y041290D01*
X064885Y041153D01*
X064871Y041011D01*
X064885Y040869D01*
X064927Y040732D01*
X064994Y040606D01*
X065085Y040496D01*
X065195Y040405D01*
X065321Y040338D01*
X065458Y040297D01*
X065600Y040283D01*
X065742Y040297D01*
X065879Y040338D01*
X066005Y040405D01*
X066115Y040496D01*
X066206Y040606D01*
X066273Y040732D01*
X066315Y040869D01*
X066329Y041011D01*
X066315Y041153D01*
X066273Y041290D01*
X066206Y041416D01*
X066115Y041526D01*
X066005Y041617D01*
X065879Y041684D01*
X065742Y041726D01*
X065600Y041740D01*
D02*
G37*
G36*
X039298Y048150D02*
X038850D01*
Y047702D01*
X038931Y047713D01*
X039052Y047763D01*
X039157Y047843D01*
X039237Y047948D01*
X039287Y048069D01*
X039298Y048150D01*
D02*
G37*
G36*
X038750Y048698D02*
X038669Y048687D01*
X038548Y048637D01*
X038443Y048557D01*
X038363Y048452D01*
X038313Y048331D01*
X038302Y048250D01*
X038750D01*
Y048698D01*
D02*
G37*
G36*
X038850D02*
Y048250D01*
X039298D01*
X039287Y048331D01*
X039237Y048452D01*
X039157Y048557D01*
X039052Y048637D01*
X038931Y048687D01*
X038850Y048698D01*
D02*
G37*
G36*
X013200Y042740D02*
X013058Y042726D01*
X012921Y042684D01*
X012795Y042617D01*
X012685Y042526D01*
X012594Y042416D01*
X012527Y042290D01*
X012485Y042153D01*
X012471Y042011D01*
X012485Y041869D01*
X012527Y041732D01*
X012594Y041606D01*
X012685Y041496D01*
X012795Y041405D01*
X012921Y041338D01*
X013058Y041297D01*
X013200Y041283D01*
X013342Y041297D01*
X013479Y041338D01*
X013605Y041405D01*
X013715Y041496D01*
X013806Y041606D01*
X013873Y041732D01*
X013915Y041869D01*
X013929Y042011D01*
X013915Y042153D01*
X013873Y042290D01*
X013806Y042416D01*
X013715Y042526D01*
X013605Y042617D01*
X013479Y042684D01*
X013342Y042726D01*
X013200Y042740D01*
D02*
G37*
G36*
X036800Y048704D02*
X036669Y048687D01*
X036548Y048637D01*
X036443Y048557D01*
X036363Y048452D01*
X036313Y048331D01*
X036296Y048200D01*
X036313Y048069D01*
X036363Y047948D01*
X036443Y047843D01*
X036548Y047763D01*
X036669Y047713D01*
X036800Y047696D01*
X036931Y047713D01*
X037052Y047763D01*
X037157Y047843D01*
X037237Y047948D01*
X037287Y048069D01*
X037304Y048200D01*
X037287Y048331D01*
X037237Y048452D01*
X037157Y048557D01*
X037052Y048637D01*
X036931Y048687D01*
X036800Y048704D01*
D02*
G37*
G36*
X038750Y048150D02*
X038302D01*
X038313Y048069D01*
X038363Y047948D01*
X038443Y047843D01*
X038548Y047763D01*
X038669Y047713D01*
X038750Y047702D01*
Y048150D01*
D02*
G37*
G36*
X037800Y039740D02*
X037658Y039726D01*
X037521Y039684D01*
X037395Y039617D01*
X037285Y039526D01*
X037194Y039416D01*
X037127Y039290D01*
X037085Y039153D01*
X037071Y039011D01*
X037085Y038869D01*
X037127Y038732D01*
X037194Y038606D01*
X037285Y038496D01*
X037395Y038405D01*
X037521Y038338D01*
X037658Y038297D01*
X037800Y038283D01*
X037942Y038297D01*
X038079Y038338D01*
X038205Y038405D01*
X038315Y038496D01*
X038406Y038606D01*
X038473Y038732D01*
X038515Y038869D01*
X038529Y039011D01*
X038515Y039153D01*
X038473Y039290D01*
X038406Y039416D01*
X038315Y039526D01*
X038205Y039617D01*
X038079Y039684D01*
X037942Y039726D01*
X037800Y039740D01*
D02*
G37*
G36*
X042863Y030856D02*
X042567D01*
X042572Y030814D01*
X042608Y030729D01*
X042664Y030656D01*
X042737Y030600D01*
X042822Y030565D01*
X042863Y030559D01*
Y030856D01*
D02*
G37*
G36*
X043260D02*
X042963D01*
Y030559D01*
X043005Y030565D01*
X043090Y030600D01*
X043163Y030656D01*
X043219Y030729D01*
X043254Y030814D01*
X043260Y030856D01*
D02*
G37*
G36*
X042863Y031252D02*
X042822Y031247D01*
X042737Y031211D01*
X042664Y031155D01*
X042608Y031082D01*
X042572Y030997D01*
X042567Y030956D01*
X042863D01*
Y031252D01*
D02*
G37*
G36*
X013250Y029498D02*
Y029050D01*
X013698D01*
X013687Y029131D01*
X013637Y029252D01*
X013557Y029357D01*
X013452Y029437D01*
X013331Y029487D01*
X013250Y029498D01*
D02*
G37*
G36*
X066800Y030704D02*
X066669Y030687D01*
X066548Y030637D01*
X066443Y030557D01*
X066363Y030452D01*
X066313Y030331D01*
X066296Y030200D01*
X066313Y030069D01*
X066363Y029948D01*
X066443Y029843D01*
X066548Y029763D01*
X066669Y029713D01*
X066800Y029696D01*
X066931Y029713D01*
X067052Y029763D01*
X067157Y029843D01*
X067237Y029948D01*
X067287Y030069D01*
X067304Y030200D01*
X067287Y030331D01*
X067237Y030452D01*
X067157Y030557D01*
X067052Y030637D01*
X066931Y030687D01*
X066800Y030704D01*
D02*
G37*
G36*
X013200Y031504D02*
X013069Y031487D01*
X012948Y031437D01*
X012843Y031357D01*
X012763Y031252D01*
X012713Y031131D01*
X012696Y031000D01*
X012713Y030869D01*
X012763Y030748D01*
X012843Y030643D01*
X012948Y030563D01*
X013069Y030513D01*
X013200Y030496D01*
X013331Y030513D01*
X013452Y030563D01*
X013557Y030643D01*
X013637Y030748D01*
X013687Y030869D01*
X013704Y031000D01*
X013687Y031131D01*
X013637Y031252D01*
X013557Y031357D01*
X013452Y031437D01*
X013331Y031487D01*
X013200Y031504D01*
D02*
G37*
G36*
X042963Y031252D02*
Y030956D01*
X043260D01*
X043254Y030997D01*
X043219Y031082D01*
X043163Y031155D01*
X043090Y031211D01*
X043005Y031247D01*
X042963Y031252D01*
D02*
G37*
G36*
X031800Y034647D02*
X031733Y034638D01*
X031623Y034593D01*
X031529Y034521D01*
X031457Y034427D01*
X031412Y034317D01*
X031403Y034250D01*
X031800D01*
Y034647D01*
D02*
G37*
G36*
X031900D02*
Y034250D01*
X032297D01*
X032288Y034317D01*
X032243Y034427D01*
X032171Y034521D01*
X032077Y034593D01*
X031967Y034638D01*
X031900Y034647D01*
D02*
G37*
G36*
X037800Y037929D02*
X037658Y037915D01*
X037521Y037873D01*
X037395Y037806D01*
X037285Y037715D01*
X037194Y037605D01*
X037127Y037479D01*
X037085Y037342D01*
X037071Y037200D01*
X037085Y037058D01*
X037127Y036921D01*
X037194Y036795D01*
X037285Y036685D01*
X037395Y036594D01*
X037521Y036527D01*
X037658Y036485D01*
X037800Y036471D01*
X037942Y036485D01*
X038079Y036527D01*
X038205Y036594D01*
X038315Y036685D01*
X038406Y036795D01*
X038473Y036921D01*
X038515Y037058D01*
X038529Y037200D01*
X038515Y037342D01*
X038473Y037479D01*
X038406Y037605D01*
X038315Y037715D01*
X038205Y037806D01*
X038079Y037873D01*
X037942Y037915D01*
X037800Y037929D01*
D02*
G37*
G36*
X032950Y034654D02*
X032833Y034638D01*
X032723Y034593D01*
X032629Y034521D01*
X032557Y034427D01*
X032512Y034317D01*
X032496Y034200D01*
X032512Y034083D01*
X032557Y033973D01*
X032629Y033879D01*
X032723Y033807D01*
X032833Y033762D01*
X032950Y033746D01*
X033067Y033762D01*
X033177Y033807D01*
X033271Y033879D01*
X033343Y033973D01*
X033388Y034083D01*
X033404Y034200D01*
X033388Y034317D01*
X033343Y034427D01*
X033271Y034521D01*
X033177Y034593D01*
X033067Y034638D01*
X032950Y034654D01*
D02*
G37*
G36*
X031800Y034150D02*
X031403D01*
X031412Y034083D01*
X031457Y033973D01*
X031529Y033879D01*
X031623Y033807D01*
X031733Y033762D01*
X031800Y033753D01*
Y034150D01*
D02*
G37*
G36*
X032297D02*
X031900D01*
Y033753D01*
X031967Y033762D01*
X032077Y033807D01*
X032171Y033879D01*
X032243Y033973D01*
X032288Y034083D01*
X032297Y034150D01*
D02*
G37*
%LPD*%
D16*
X042250Y027600D02*
D03*
X043350D02*
D03*
X032950Y034200D02*
D03*
X031850D02*
D03*
X033600Y020000D02*
D03*
X027409D02*
D03*
X046009Y040200D02*
D03*
X052200D02*
D03*
X030200D02*
D03*
X024009D02*
D03*
X054800Y020600D02*
D03*
X044640D02*
D03*
D17*
X065600Y041011D02*
D03*
Y039200D02*
D03*
X037800Y037200D02*
D03*
Y039011D02*
D03*
X039000Y022811D02*
D03*
Y021000D02*
D03*
X015000Y019600D02*
D03*
Y021411D02*
D03*
X013200Y042011D02*
D03*
Y040200D02*
D03*
X066400Y018600D02*
D03*
Y020411D02*
D03*
D18*
X037800Y011800D02*
D03*
X039800D02*
D03*
X038800Y048200D02*
D03*
X036800D02*
D03*
X066800Y028200D02*
D03*
Y030200D02*
D03*
X013200Y031000D02*
D03*
Y029000D02*
D03*
D19*
X042913Y030906D02*
D03*
M02*
