%FSAX24Y24*%
%MOIN*%
G70*
G01*
G75*
%ADD10R,0.2579X0.3150*%
%ADD11R,0.0800X0.0600*%
%ADD12R,0.2126X0.0945*%
%ADD13R,0.3504X0.3228*%
%ADD14C,0.0500*%
%ADD15C,0.0100*%
%ADD16C,0.0700*%
%ADD17C,0.1250*%
%ADD18C,0.0800*%
%ADD19C,0.0500*%
%ADD20C,0.0098*%
%ADD21R,0.2659X0.3230*%
%ADD22R,0.0880X0.0680*%
%ADD23R,0.2206X0.1025*%
%ADD24R,0.3584X0.3308*%
%ADD25C,0.0780*%
%ADD26C,0.1330*%
%ADD27C,0.0880*%
%ADD28C,0.0580*%
%ADD29C,0.0067*%
D29*
X042000Y027600D02*
X042500D01*
X042250Y027350D02*
Y027850D01*
X043100Y027600D02*
X043600D01*
X043350Y027350D02*
Y027850D01*
X032700Y034200D02*
X033200D01*
X032950Y033950D02*
Y034450D01*
X031600Y034200D02*
X032100D01*
X031850Y033950D02*
Y034450D01*
X065100Y041011D02*
X066100D01*
X065600Y040511D02*
Y041511D01*
X065100Y039200D02*
X066100D01*
X065600Y038700D02*
Y039700D01*
X037300Y037200D02*
X038300D01*
X037800Y036700D02*
Y037700D01*
X037300Y039011D02*
X038300D01*
X037800Y038511D02*
Y039511D01*
X038500Y022811D02*
X039500D01*
X039000Y022311D02*
Y023311D01*
X038500Y021000D02*
X039500D01*
X039000Y020500D02*
Y021500D01*
X014500Y019600D02*
X015500D01*
X015000Y019100D02*
Y020100D01*
X014500Y021411D02*
X015500D01*
X015000Y020911D02*
Y021911D01*
X012700Y042011D02*
X013700D01*
X013200Y041511D02*
Y042511D01*
X012700Y040200D02*
X013700D01*
X013200Y039700D02*
Y040700D01*
X065900Y018600D02*
X066900D01*
X066400Y018100D02*
Y019100D01*
X065900Y020411D02*
X066900D01*
X066400Y019911D02*
Y020911D01*
X033350Y020000D02*
X033850D01*
X033600Y019750D02*
Y020250D01*
X027159Y020000D02*
X027659D01*
X027409Y019750D02*
Y020250D01*
X045759Y040200D02*
X046259D01*
X046009Y039950D02*
Y040450D01*
X051950Y040200D02*
X052450D01*
X052200Y039950D02*
Y040450D01*
X029950Y040200D02*
X030450D01*
X030200Y039950D02*
Y040450D01*
X023759Y040200D02*
X024259D01*
X024009Y039950D02*
Y040450D01*
X054550Y020600D02*
X055050D01*
X054800Y020350D02*
Y020850D01*
X044390Y020600D02*
X044890D01*
X044640Y020350D02*
Y020850D01*
X037500Y011800D02*
X038100D01*
X037800Y011500D02*
Y012100D01*
X039500Y011800D02*
X040100D01*
X039800Y011500D02*
Y012100D01*
X038500Y048200D02*
X039100D01*
X038800Y047900D02*
Y048500D01*
X036500Y048200D02*
X037100D01*
X036800Y047900D02*
Y048500D01*
X066500Y028200D02*
X067100D01*
X066800Y027900D02*
Y028500D01*
X066500Y030200D02*
X067100D01*
X066800Y029900D02*
Y030500D01*
X012900Y031000D02*
X013500D01*
X013200Y030700D02*
Y031300D01*
X012900Y029000D02*
X013500D01*
X013200Y028700D02*
Y029300D01*
X042773Y030906D02*
X043053D01*
X042913Y030766D02*
Y031046D01*
M02*
