%FSDAX24Y24*%
%MOIN*%
%SFA1B1*%

%IPPOS*%
%ADD15C,0.010000*%
%ADD20C,0.009800*%
%LNtlinepcb-1*%
%LPD*%
G54D15*
X056299Y031299D02*
D01*
X056298Y031312*
X056297Y031326*
X056294Y031339*
X056291Y031353*
X056287Y031366*
X056281Y031379*
X056275Y031391*
X056269Y031403*
X056261Y031414*
X056252Y031425*
X056243Y031435*
X056233Y031445*
X056223Y031454*
X056212Y031462*
X056200Y031469*
X056188Y031476*
X056175Y031481*
X056162Y031486*
X056149Y031490*
X056136Y031493*
X056122Y031494*
X056108Y031495*
X056095*
X056081Y031494*
X056067Y031493*
X056054Y031490*
X056041Y031486*
X056028Y031481*
X056015Y031476*
X056003Y031469*
X055991Y031462*
X055980Y031454*
X055970Y031445*
X055960Y031435*
X055951Y031425*
X055942Y031414*
X055934Y031403*
X055928Y031391*
X055922Y031379*
X055916Y031366*
X055912Y031353*
X055909Y031339*
X055906Y031326*
X055905Y031312*
X055905Y031299*
X055905Y031285*
X055906Y031271*
X055909Y031258*
X055912Y031244*
X055916Y031231*
X055922Y031218*
X055928Y031206*
X055934Y031194*
X055942Y031183*
X055951Y031172*
X055960Y031162*
X055970Y031152*
X055980Y031143*
X055991Y031135*
X056003Y031128*
X056015Y031121*
X056028Y031116*
X056041Y031111*
X056054Y031107*
X056067Y031104*
X056081Y031103*
X056095Y031102*
X056108*
X056122Y031103*
X056136Y031104*
X056149Y031107*
X056162Y031111*
X056175Y031116*
X056188Y031121*
X056200Y031128*
X056212Y031135*
X056223Y031143*
X056233Y031152*
X056243Y031162*
X056252Y031172*
X056261Y031183*
X056269Y031194*
X056275Y031206*
X056281Y031218*
X056287Y031231*
X056291Y031244*
X056294Y031258*
X056297Y031271*
X056298Y031285*
X056299Y031299*
X055790Y031890D02*
D01*
X055789Y031909*
X055787Y031928*
X055783Y031947*
X055779Y031966*
X055773Y031985*
X055765Y032003*
X055757Y032020*
X055747Y032037*
X055736Y032053*
X055724Y032068*
X055711Y032083*
X055698Y032096*
X055683Y032109*
X055667Y032120*
X055651Y032130*
X055633Y032139*
X055616Y032147*
X055597Y032154*
X055579Y032159*
X055560Y032163*
X055541Y032166*
X055521Y032167*
X055502*
X055482Y032166*
X055463Y032163*
X055444Y032159*
X055426Y032154*
X055407Y032147*
X055390Y032139*
X055373Y032130*
X055356Y032120*
X055340Y032109*
X055325Y032096*
X055312Y032083*
X055299Y032068*
X055287Y032053*
X055276Y032037*
X055266Y032020*
X055258Y032003*
X055250Y031985*
X055244Y031966*
X055240Y031947*
X055236Y031928*
X055234Y031909*
X055234Y031890*
X055234Y031870*
X055236Y031851*
X055240Y031832*
X055244Y031813*
X055250Y031794*
X055258Y031776*
X055266Y031759*
X055276Y031742*
X055287Y031726*
X055299Y031711*
X055312Y031696*
X055325Y031683*
X055340Y031670*
X055356Y031659*
X055373Y031649*
X055390Y031640*
X055407Y031632*
X055426Y031625*
X055444Y031620*
X055463Y031616*
X055482Y031613*
X055502Y031612*
X055521*
X055541Y031613*
X055560Y031616*
X055579Y031620*
X055597Y031625*
X055616Y031632*
X055633Y031640*
X055651Y031649*
X055667Y031659*
X055683Y031670*
X055698Y031683*
X055711Y031696*
X055724Y031711*
X055736Y031726*
X055747Y031742*
X055757Y031759*
X055765Y031776*
X055773Y031794*
X055779Y031813*
X055783Y031832*
X055787Y031851*
X055789Y031870*
X055790Y031890*
X055003D02*
D01*
X055002Y031909*
X055000Y031928*
X054996Y031947*
X054992Y031966*
X054986Y031985*
X054978Y032003*
X054970Y032020*
X054960Y032037*
X054949Y032053*
X054937Y032068*
X054924Y032083*
X054911Y032096*
X054896Y032109*
X054880Y032120*
X054864Y032130*
X054846Y032139*
X054829Y032147*
X054810Y032154*
X054792Y032159*
X054773Y032163*
X054754Y032166*
X054734Y032167*
X054715*
X054695Y032166*
X054676Y032163*
X054657Y032159*
X054639Y032154*
X054620Y032147*
X054603Y032139*
X054586Y032130*
X054569Y032120*
X054553Y032109*
X054538Y032096*
X054525Y032083*
X054512Y032068*
X054500Y032053*
X054489Y032037*
X054479Y032020*
X054471Y032003*
X054463Y031985*
X054457Y031966*
X054453Y031947*
X054449Y031928*
X054447Y031909*
X054447Y031890*
X054447Y031870*
X054449Y031851*
X054453Y031832*
X054457Y031813*
X054463Y031794*
X054471Y031776*
X054479Y031759*
X054489Y031742*
X054500Y031726*
X054512Y031711*
X054525Y031696*
X054538Y031683*
X054553Y031670*
X054569Y031659*
X054586Y031649*
X054603Y031640*
X054620Y031632*
X054639Y031625*
X054657Y031620*
X054676Y031616*
X054695Y031613*
X054715Y031612*
X054734*
X054754Y031613*
X054773Y031616*
X054792Y031620*
X054810Y031625*
X054829Y031632*
X054846Y031640*
X054864Y031649*
X054880Y031659*
X054896Y031670*
X054911Y031683*
X054924Y031696*
X054937Y031711*
X054949Y031726*
X054960Y031742*
X054970Y031759*
X054978Y031776*
X054986Y031794*
X054992Y031813*
X054996Y031832*
X055000Y031851*
X055002Y031870*
X055003Y031890*
X054331Y031299D02*
D01*
X054330Y031312*
X054329Y031326*
X054326Y031339*
X054323Y031353*
X054319Y031366*
X054313Y031379*
X054307Y031391*
X054301Y031403*
X054293Y031414*
X054284Y031425*
X054275Y031435*
X054265Y031445*
X054255Y031454*
X054244Y031462*
X054232Y031469*
X054220Y031476*
X054207Y031481*
X054194Y031486*
X054181Y031490*
X054168Y031493*
X054154Y031494*
X054140Y031495*
X054127*
X054113Y031494*
X054099Y031493*
X054086Y031490*
X054073Y031486*
X054060Y031481*
X054047Y031476*
X054035Y031469*
X054023Y031462*
X054012Y031454*
X054002Y031445*
X053992Y031435*
X053983Y031425*
X053974Y031414*
X053966Y031403*
X053960Y031391*
X053954Y031379*
X053948Y031366*
X053944Y031353*
X053941Y031339*
X053938Y031326*
X053937Y031312*
X053937Y031299*
X053937Y031285*
X053938Y031271*
X053941Y031258*
X053944Y031244*
X053948Y031231*
X053954Y031218*
X053960Y031206*
X053966Y031194*
X053974Y031183*
X053983Y031172*
X053992Y031162*
X054002Y031152*
X054012Y031143*
X054023Y031135*
X054035Y031128*
X054047Y031121*
X054060Y031116*
X054073Y031111*
X054086Y031107*
X054099Y031104*
X054113Y031103*
X054127Y031102*
X054140*
X054154Y031103*
X054168Y031104*
X054181Y031107*
X054194Y031111*
X054207Y031116*
X054220Y031121*
X054232Y031128*
X054244Y031135*
X054255Y031143*
X054265Y031152*
X054275Y031162*
X054284Y031172*
X054293Y031183*
X054301Y031194*
X054307Y031206*
X054313Y031218*
X054319Y031231*
X054323Y031244*
X054326Y031258*
X054329Y031271*
X054330Y031285*
X054331Y031299*
X055741Y030512D02*
D01*
X055739Y030555*
X055734Y030598*
X055727Y030641*
X055716Y030683*
X055703Y030724*
X055687Y030764*
X055668Y030804*
X055646Y030841*
X055622Y030877*
X055595Y030911*
X055566Y030944*
X055535Y030974*
X055501Y031002*
X055466Y031027*
X055430Y031050*
X055391Y031071*
X055352Y031088*
X055311Y031103*
X055269Y031115*
X055227Y031124*
X055184Y031130*
X055140Y031133*
X055097*
X055053Y031130*
X055010Y031124*
X054968Y031115*
X054926Y031103*
X054885Y031088*
X054846Y031071*
X054808Y031050*
X054771Y031027*
X054736Y031002*
X054702Y030974*
X054671Y030944*
X054642Y030911*
X054615Y030877*
X054591Y030841*
X054569Y030804*
X054550Y030764*
X054534Y030724*
X054521Y030683*
X054510Y030641*
X054503Y030598*
X054498Y030555*
X054497Y030512*
X054498Y030468*
X054503Y030425*
X054510Y030382*
X054521Y030340*
X054534Y030299*
X054550Y030259*
X054569Y030219*
X054591Y030182*
X054615Y030146*
X054642Y030112*
X054671Y030079*
X054702Y030049*
X054736Y030021*
X054771Y029996*
X054808Y029973*
X054846Y029952*
X054885Y029935*
X054926Y029920*
X054968Y029908*
X055010Y029899*
X055053Y029893*
X055097Y029890*
X055140*
X055184Y029893*
X055227Y029899*
X055269Y029908*
X055311Y029920*
X055352Y029935*
X055391Y029952*
X055430Y029973*
X055466Y029996*
X055501Y030021*
X055535Y030049*
X055566Y030079*
X055595Y030112*
X055622Y030146*
X055646Y030182*
X055668Y030219*
X055687Y030259*
X055703Y030299*
X055716Y030340*
X055727Y030382*
X055734Y030425*
X055739Y030468*
X055741Y030512*
X041700Y028150D02*
X043900D01*
Y027050D02*
Y028150D01*
X041700Y027050D02*
X043900D01*
X041700D02*
Y028150D01*
X031300Y033650D02*
Y034750D01*
Y033650D02*
X033500D01*
Y034750*
X031300D02*
X033500D01*
X017500Y043850D02*
X020950D01*
Y033850D02*
Y043850D01*
X017500Y033850D02*
X020950D01*
X017500D02*
Y043850D01*
X033400Y027100D02*
Y028100D01*
Y027100D02*
X035800D01*
X033400Y028100D02*
X035800D01*
Y027100D02*
Y028100D01*
X019150Y021850D02*
X025600D01*
X025650Y021800*
Y017600D02*
Y021800D01*
X019150Y017600D02*
X025650D01*
X019150D02*
Y021850D01*
X044600Y033700D02*
Y034700D01*
X042200D02*
X044600D01*
X042200Y033700D02*
X044600D01*
X042200D02*
Y034700D01*
X055550Y038000D02*
Y042250D01*
Y038000D02*
X062050D01*
Y042200*
X062000Y042250D02*
X062050Y042200D01*
X055550Y042250D02*
X062000D01*
X055750Y018850D02*
X062200D01*
X062250Y018800*
Y014600D02*
Y018800D01*
X055750Y014600D02*
X062250D01*
X055750D02*
Y018850D01*
Y022400D02*
Y026650D01*
Y022400D02*
X062250D01*
Y026600*
X062200Y026650D02*
X062250Y026600D01*
X055750Y026650D02*
X062200D01*
X066500Y037650D02*
Y042550D01*
X064700D02*
X066500D01*
X064700Y037650D02*
X066500D01*
X064700D02*
Y042550D01*
X036900Y035650D02*
Y040550D01*
Y035650D02*
X038700D01*
X036900Y040550D02*
X038700D01*
Y035650D02*
Y040550D01*
X039900Y019450D02*
Y024350D01*
X038100D02*
X039900D01*
X038100Y019450D02*
X039900D01*
X038100D02*
Y024350D01*
X014100Y018050D02*
Y022950D01*
Y018050D02*
X015900D01*
X014100Y022950D02*
X015900D01*
Y018050D02*
Y022950D01*
X014100Y038650D02*
Y043550D01*
X012300D02*
X014100D01*
X012300Y038650D02*
X014100D01*
X012300D02*
Y043550D01*
X065500Y017050D02*
Y021950D01*
Y017050D02*
X067300D01*
X065500Y021950D02*
X067300D01*
Y017050D02*
Y021950D01*
X031800Y015100D02*
Y024700D01*
X029250Y015100D02*
X031800D01*
X029250Y024700D02*
X031800D01*
X029250Y015100D02*
Y024700D01*
X026850Y019400D02*
X029250D01*
X026850D02*
Y020600D01*
X029250*
X031800Y019400D02*
X034150D01*
Y020600*
X031800D02*
X034150D01*
X050400Y040800D02*
X052750D01*
Y039600D02*
Y040800D01*
X050400Y039600D02*
X052750D01*
X045450Y040800D02*
X047850D01*
X045450Y039600D02*
Y040800D01*
Y039600D02*
X047850D01*
Y035300D02*
Y044900D01*
X050400*
X047850Y035300D02*
X050400D01*
Y044900*
X028400Y035300D02*
Y044900D01*
X025850Y035300D02*
X028400D01*
X025850Y044900D02*
X028400D01*
X025850Y035300D02*
Y044900D01*
X023450Y039600D02*
X025850D01*
X023450D02*
Y040800D01*
X025850*
X028400Y039600D02*
X030750D01*
Y040800*
X028400D02*
X030750D01*
X051650Y021200D02*
X055350D01*
Y020000D02*
Y021200D01*
X051650Y020000D02*
X055350D01*
X044100Y021200D02*
X047800D01*
X044100Y020000D02*
Y021200D01*
Y020000D02*
X047800D01*
Y013750D02*
Y028150D01*
Y013750D02*
X051650D01*
Y028150*
X047800D02*
X051650D01*
X037200Y011200D02*
X040400D01*
X037200Y012400D02*
X040400D01*
Y011200D02*
Y012400D01*
X037200Y011200D02*
Y012400D01*
X036200Y047600D02*
Y048800D01*
X039400Y047600D02*
Y048800D01*
X036200D02*
X039400D01*
X036200Y047600D02*
X039400D01*
X066200Y030800D02*
X067400D01*
X066200Y027600D02*
X067400D01*
X066200D02*
Y030800D01*
X067400Y027600D02*
Y030800D01*
X013800Y028400D02*
Y031600D01*
X012600Y028400D02*
Y031600D01*
Y028400D02*
X013800D01*
X012600Y031600D02*
X013800D01*
X035827Y046078D02*
Y045079D01*
X036493*
X037326Y046078D02*
X036993D01*
X036826Y045912*
Y045245*
X036993Y045079*
X037326*
X037493Y045245*
Y045912*
X037326Y046078*
X037826Y045079D02*
Y045745D01*
X038159Y046078*
X038493Y045745*
Y045079*
Y045579*
X037826*
X038826Y046078D02*
Y045079D01*
X039326*
X039492Y045245*
Y045912*
X039326Y046078*
X038826*
X039825Y045079D02*
X040159D01*
X039992*
Y046078*
X039825Y045912*
X036811Y014976D02*
Y013976D01*
X037477*
X038311Y014976D02*
X037977D01*
X037811Y014809*
Y014143*
X037977Y013976*
X038311*
X038477Y014143*
Y014809*
X038311Y014976*
X038810Y013976D02*
Y014643D01*
X039144Y014976*
X039477Y014643*
Y013976*
Y014476*
X038810*
X039810Y014976D02*
Y013976D01*
X040310*
X040477Y014143*
Y014809*
X040310Y014976*
X039810*
X041476Y013976D02*
X040810D01*
X041476Y014643*
Y014809*
X041310Y014976*
X040976*
X040810Y014809*
X032290Y035736D02*
X032190Y035836D01*
X031990*
X031890Y035736*
Y035336*
X031990Y035236*
X032190*
X032290Y035336*
X032490Y035236D02*
X032689D01*
X032590*
Y035836*
X032490Y035736*
X043313D02*
X043213Y035836D01*
X043013*
X042913Y035736*
Y035336*
X043013Y035236*
X043213*
X043313Y035336*
X043913Y035236D02*
X043513D01*
X043913Y035636*
Y035736*
X043813Y035836*
X043613*
X043513Y035736*
X034461Y026287D02*
X034361Y026387D01*
X034161*
X034061Y026287*
Y025887*
X034161Y025787*
X034361*
X034461Y025887*
X034661Y026287D02*
X034761Y026387D01*
X034961*
X035061Y026287*
Y026187*
X034961Y026087*
X034861*
X034961*
X035061Y025987*
Y025887*
X034961Y025787*
X034761*
X034661Y025887*
X042738Y026484D02*
X042638Y026584D01*
X042439*
X042339Y026484*
Y026084*
X042439Y025984*
X042638*
X042738Y026084*
X043238Y025984D02*
Y026584D01*
X042938Y026284*
X043338*
X015551Y030527D02*
X015884D01*
X015718*
Y029528*
X015551*
X015884*
X016384D02*
Y030527D01*
X017051Y029528*
Y030527*
X017384Y029528D02*
X017717D01*
X017551*
Y030527*
X017384Y030361*
X062008Y029937D02*
X062341D01*
X062174*
Y028937*
X062008*
X062341*
X062841D02*
Y029937D01*
X063507Y028937*
Y029937*
X064507Y028937D02*
X063841D01*
X064507Y029603*
Y029770*
X064340Y029937*
X064007*
X063841Y029770*
X026772Y046663D02*
Y046063D01*
X027172*
X027371D02*
X027571D01*
X027471*
Y046663*
X027371Y046563*
X048622Y046663D02*
Y046063D01*
X049022*
X049622D02*
X049222D01*
X049622Y046463*
Y046563*
X049522Y046663*
X049322*
X049222Y046563*
X030118Y026781D02*
Y026181D01*
X030518*
X030718Y026681D02*
X030818Y026781D01*
X031018*
X031118Y026681*
Y026581*
X031018Y026481*
X030918*
X031018*
X031118Y026381*
Y026281*
X031018Y026181*
X030818*
X030718Y026281*
X049213Y030127D02*
Y029528D01*
X049612*
X050112D02*
Y030127D01*
X049812Y029827*
X050212*
X018898Y044488D02*
Y045088D01*
X019198*
X019298Y044988*
Y044788*
X019198Y044688*
X018898*
X019098D02*
X019298Y044488D01*
X019497D02*
X019697D01*
X019597*
Y045088*
X019497Y044988*
X058268Y042717D02*
Y043316D01*
X058568*
X058668Y043216*
Y043016*
X058568Y042916*
X058268*
X058468D02*
X058668Y042717D01*
X059267D02*
X058868D01*
X059267Y043116*
Y043216*
X059167Y043316*
X058967*
X058868Y043216*
X022047Y022441D02*
Y023041D01*
X022347*
X022447Y022941*
Y022741*
X022347Y022641*
X022047*
X022247D02*
X022447Y022441D01*
X022647Y022941D02*
X022747Y023041D01*
X022947*
X023047Y022941*
Y022841*
X022947Y022741*
X022847*
X022947*
X023047Y022641*
Y022541*
X022947Y022441*
X022747*
X022647Y022541*
X058268Y027165D02*
Y027765D01*
X058568*
X058668Y027665*
Y027465*
X058568Y027365*
X058268*
X058468D02*
X058668Y027165D01*
X059167D02*
Y027765D01*
X058868Y027465*
X059267*
X059467Y027165D02*
Y027565D01*
X059667Y027765*
X059867Y027565*
Y027165*
Y027465*
X059467*
X058268Y019291D02*
Y019891D01*
X058568*
X058668Y019791*
Y019591*
X058568Y019491*
X058268*
X058468D02*
X058668Y019291D01*
X059167D02*
Y019891D01*
X058868Y019591*
X059267*
X059467Y019891D02*
Y019291D01*
X059767*
X059867Y019391*
Y019491*
X059767Y019591*
X059467*
X059767*
X059867Y019691*
Y019791*
X059767Y019891*
X059467*
X012998Y047950D02*
X012898Y048050D01*
X012698*
X012598Y047950*
Y047850*
X012698Y047750*
X012898*
X012998Y047650*
Y047550*
X012898Y047450*
X012698*
X012598Y047550*
X013198Y048050D02*
Y047450D01*
X013398Y047650*
X013598Y047450*
Y048050*
X013798Y047450D02*
X013998D01*
X013898*
Y048050*
X013798Y047950*
X014554Y013689D02*
X014454Y013789D01*
X014254*
X014154Y013689*
Y013589*
X014254Y013489*
X014454*
X014554Y013389*
Y013289*
X014454Y013189*
X014254*
X014154Y013289*
X014754Y013789D02*
Y013189D01*
X014954Y013389*
X015154Y013189*
Y013789*
X015754Y013189D02*
X015354D01*
X015754Y013589*
Y013689*
X015654Y013789*
X015454*
X015354Y013689*
X041935Y017829D02*
X041835Y017929D01*
X041635*
X041535Y017829*
Y017729*
X041635Y017629*
X041835*
X041935Y017529*
Y017429*
X041835Y017329*
X041635*
X041535Y017429*
X042135Y017929D02*
Y017329D01*
X042335Y017529*
X042535Y017329*
Y017929*
X042735Y017829D02*
X042835Y017929D01*
X043035*
X043135Y017829*
Y017729*
X043035Y017629*
X042935*
X043035*
X043135Y017529*
Y017429*
X043035Y017329*
X042835*
X042735Y017429*
X065951Y012901D02*
X065851Y013001D01*
X065651*
X065551Y012901*
Y012801*
X065651Y012701*
X065851*
X065951Y012602*
Y012502*
X065851Y012402*
X065651*
X065551Y012502*
X066151Y013001D02*
Y012402D01*
X066351Y012602*
X066551Y012402*
Y013001*
X067051Y012402D02*
Y013001D01*
X066751Y012701*
X067151*
X065183Y047350D02*
X065083Y047450D01*
X064883*
X064783Y047350*
Y047250*
X064883Y047150*
X065083*
X065183Y047050*
Y046950*
X065083Y046850*
X064883*
X064783Y046950*
X065382Y047450D02*
Y046850D01*
X065582Y047050*
X065782Y046850*
Y047450*
X066382D02*
X065982D01*
Y047150*
X066182Y047250*
X066282*
X066382Y047150*
Y046950*
X066282Y046850*
X066082*
X065982Y046950*
X041542Y042035D02*
X041442Y042135D01*
X041242*
X041142Y042035*
Y041935*
X041242Y041835*
X041442*
X041542Y041735*
Y041635*
X041442Y041535*
X041242*
X041142Y041635*
X041742Y042135D02*
Y041535D01*
X041941Y041735*
X042141Y041535*
Y042135*
X042741D02*
X042541Y042035D01*
X042341Y041835*
Y041635*
X042441Y041535*
X042641*
X042741Y041635*
Y041735*
X042641Y041835*
X042341*
X022638Y030315D02*
Y030715D01*
X022838*
X022904Y030648*
Y030515*
X022838Y030448*
X022638*
X023238Y030715D02*
X023104D01*
X023038Y030648*
Y030382*
X023104Y030315*
X023238*
X023304Y030382*
Y030648*
X023238Y030715*
X023637D02*
X023504D01*
X023438Y030648*
Y030382*
X023504Y030315*
X023637*
X023704Y030382*
Y030648*
X023637Y030715*
X024104Y030648D02*
X024037Y030715D01*
X023904*
X023837Y030648*
Y030382*
X023904Y030315*
X024037*
X024104Y030382*
X024237Y030715D02*
Y030315D01*
Y030515*
X024504*
Y030715*
Y030315*
X024904Y030715D02*
X024637D01*
Y030315*
X024904*
X024637Y030515D02*
X024770D01*
X025304Y030648D02*
X025237Y030715D01*
X025104*
X025037Y030648*
Y030582*
X025104Y030515*
X025237*
X025304Y030448*
Y030382*
X025237Y030315*
X025104*
X025037Y030382*
X023031Y031102D02*
Y031502D01*
X023231*
X023298Y031436*
Y031302*
X023231Y031236*
X023031*
X023631Y031502D02*
X023498D01*
X023431Y031436*
Y031169*
X023498Y031102*
X023631*
X023698Y031169*
Y031436*
X023631Y031502*
X023831D02*
Y031102D01*
X023965Y031236*
X024098Y031102*
Y031502*
X024498D02*
X024231D01*
Y031102*
X024498*
X024231Y031302D02*
X024364D01*
X024631Y031102D02*
Y031502D01*
X024831*
X024898Y031436*
Y031302*
X024831Y031236*
X024631*
X024764D02*
X024898Y031102D01*
X052044Y012614D02*
X051378D01*
Y012114*
X051711Y012281*
X051878*
X052044Y012114*
Y011781*
X051878Y011614*
X051545*
X051378Y011781*
X052378Y012447D02*
X052544Y012614D01*
X052877*
X053044Y012447*
Y011781*
X052877Y011614*
X052544*
X052378Y011781*
Y012447*
X054377Y011614D02*
Y012614D01*
X054710Y012281*
X055043Y012614*
Y011614*
X055377Y012614D02*
X055710D01*
X055543*
Y011614*
X055377*
X055710*
X056210Y012614D02*
Y011614D01*
X056876*
X057876Y012614D02*
X057209D01*
Y011614*
X057876*
X057209Y012114D02*
X057543D01*
X058876Y012447D02*
X058709Y012614D01*
X058376*
X058209Y012447*
Y012281*
X058376Y012114*
X058709*
X058876Y011947*
Y011781*
X058709Y011614*
X058376*
X058209Y011781*
X051848Y047638D02*
X051181D01*
X051848Y048304*
Y048471*
X051681Y048637*
X051348*
X051181Y048471*
X052847Y048637D02*
X052181D01*
Y048138*
X052514Y048304*
X052681*
X052847Y048138*
Y047804*
X052681Y047638*
X052347*
X052181Y047804*
X054180Y047638D02*
Y048637D01*
X054513Y048304*
X054847Y048637*
Y047638*
X055180Y048637D02*
X055513D01*
X055346*
Y047638*
X055180*
X055513*
X056013Y048637D02*
Y047638D01*
X056679*
X057679Y048637D02*
X057013D01*
Y047638*
X057679*
X057013Y048138D02*
X057346D01*
X058679Y048471D02*
X058512Y048637D01*
X058179*
X058012Y048471*
Y048304*
X058179Y048138*
X058512*
X058679Y047971*
Y047804*
X058512Y047638*
X058179*
X058012Y047804*
X020942Y011614D02*
X020276D01*
X020942Y012281*
Y012447*
X020775Y012614*
X020442*
X020276Y012447*
X021942Y012614D02*
X021275D01*
Y012114*
X021608Y012281*
X021775*
X021942Y012114*
Y011781*
X021775Y011614*
X021442*
X021275Y011781*
X023275Y011614D02*
Y012614D01*
X023608Y012281*
X023941Y012614*
Y011614*
X024274Y012614D02*
X024608D01*
X024441*
Y011614*
X024274*
X024608*
X025107Y012614D02*
Y011614D01*
X025774*
X026773Y012614D02*
X026107D01*
Y011614*
X026773*
X026107Y012114D02*
X026440D01*
X027773Y012447D02*
X027607Y012614D01*
X027273*
X027107Y012447*
Y012281*
X027273Y012114*
X027607*
X027773Y011947*
Y011781*
X027607Y011614*
X027273*
X027107Y011781*
X020472Y047638D02*
X020806D01*
X020639*
Y048637*
X020472Y048471*
X021305D02*
X021472Y048637D01*
X021805*
X021972Y048471*
Y047804*
X021805Y047638*
X021472*
X021305Y047804*
Y048471*
X023305Y047638D02*
Y048637D01*
X023638Y048304*
X023971Y048637*
Y047638*
X024305Y048637D02*
X024638D01*
X024471*
Y047638*
X024305*
X024638*
X025138Y048637D02*
Y047638D01*
X025804*
X026804Y048637D02*
X026137D01*
Y047638*
X026804*
X026137Y048138D02*
X026470D01*
X027803Y048471D02*
X027637Y048637D01*
X027304*
X027137Y048471*
Y048304*
X027304Y048138*
X027637*
X027803Y047971*
Y047804*
X027637Y047638*
X027304*
X027137Y047804*
X030906Y031315D02*
X031572D01*
X031239*
Y030315*
X031905D02*
Y031315D01*
X032405*
X032572Y031148*
Y030815*
X032405Y030648*
X031905*
X032238D02*
X032572Y030315D01*
X032905D02*
Y030981D01*
X033238Y031315*
X033571Y030981*
Y030315*
Y030815*
X032905*
X033905Y030315D02*
Y031315D01*
X034571Y030315*
Y031315*
X035571Y031148D02*
X035404Y031315D01*
X035071*
X034904Y031148*
Y030981*
X035071Y030815*
X035404*
X035571Y030648*
Y030482*
X035404Y030315*
X035071*
X034904Y030482*
X035904Y030315D02*
Y031315D01*
X036237Y030981*
X036570Y031315*
Y030315*
X036904Y031315D02*
X037237D01*
X037070*
Y030315*
X036904*
X037237*
X038403Y031148D02*
X038236Y031315D01*
X037903*
X037737Y031148*
Y030981*
X037903Y030815*
X038236*
X038403Y030648*
Y030482*
X038236Y030315*
X037903*
X037737Y030482*
X039403Y031148D02*
X039236Y031315D01*
X038903*
X038736Y031148*
Y030981*
X038903Y030815*
X039236*
X039403Y030648*
Y030482*
X039236Y030315*
X038903*
X038736Y030482*
X039736Y031315D02*
X040069D01*
X039903*
Y030315*
X039736*
X040069*
X041069Y031315D02*
X040736D01*
X040569Y031148*
Y030482*
X040736Y030315*
X041069*
X041236Y030482*
Y031148*
X041069Y031315*
X041569Y030315D02*
Y031315D01*
X042235Y030315*
Y031315*
X043568D02*
Y030315D01*
X044235*
X044568Y031315D02*
X044901D01*
X044734*
Y030315*
X044568*
X044901*
X045401D02*
Y031315D01*
X046067Y030315*
Y031315*
X047067D02*
X046401D01*
Y030315*
X047067*
X046401Y030815D02*
X046734D01*
X048067Y031148D02*
X047900Y031315D01*
X047567*
X047400Y031148*
Y030981*
X047567Y030815*
X047900*
X048067Y030648*
Y030482*
X047900Y030315*
X047567*
X047400Y030482*
G54D20*
X020559Y021187D02*
D01*
X020558Y021190*
X020558Y021193*
X020557Y021197*
X020557Y021200*
X020556Y021203*
X020554Y021206*
X020553Y021210*
X020551Y021212*
X020549Y021215*
X020547Y021218*
X020545Y021221*
X020542Y021223*
X020540Y021225*
X020537Y021227*
X020534Y021229*
X020531Y021231*
X020528Y021232*
X020525Y021233*
X020521Y021234*
X020518Y021235*
X020515Y021235*
X020511Y021235*
X020508*
X020504Y021235*
X020501Y021235*
X020498Y021234*
X020494Y021233*
X020491Y021232*
X020488Y021231*
X020485Y021229*
X020482Y021227*
X020479Y021225*
X020477Y021223*
X020474Y021221*
X020472Y021218*
X020470Y021215*
X020468Y021212*
X020466Y021210*
X020465Y021206*
X020463Y021203*
X020462Y021200*
X020462Y021197*
X020461Y021193*
X020461Y021190*
X020461Y021187*
X020461Y021183*
X020461Y021180*
X020462Y021176*
X020462Y021173*
X020463Y021170*
X020465Y021167*
X020466Y021163*
X020468Y021161*
X020470Y021158*
X020472Y021155*
X020474Y021152*
X020477Y021150*
X020479Y021148*
X020482Y021146*
X020485Y021144*
X020488Y021142*
X020491Y021141*
X020494Y021140*
X020498Y021139*
X020501Y021138*
X020504Y021138*
X020508Y021138*
X020511*
X020515Y021138*
X020518Y021138*
X020521Y021139*
X020525Y021140*
X020528Y021141*
X020531Y021142*
X020534Y021144*
X020537Y021146*
X020540Y021148*
X020542Y021150*
X020545Y021152*
X020547Y021155*
X020549Y021158*
X020551Y021161*
X020553Y021163*
X020554Y021167*
X020556Y021170*
X020557Y021173*
X020557Y021176*
X020558Y021180*
X020558Y021183*
X020559Y021187*
X056959Y041587D02*
D01*
X056958Y041590*
X056958Y041593*
X056957Y041597*
X056957Y041600*
X056956Y041603*
X056954Y041606*
X056953Y041610*
X056951Y041612*
X056949Y041615*
X056947Y041618*
X056945Y041621*
X056942Y041623*
X056940Y041625*
X056937Y041627*
X056934Y041629*
X056931Y041631*
X056928Y041632*
X056925Y041633*
X056921Y041634*
X056918Y041635*
X056915Y041635*
X056911Y041635*
X056908*
X056904Y041635*
X056901Y041635*
X056898Y041634*
X056894Y041633*
X056891Y041632*
X056888Y041631*
X056885Y041629*
X056882Y041627*
X056879Y041625*
X056877Y041623*
X056874Y041621*
X056872Y041618*
X056870Y041615*
X056868Y041612*
X056866Y041610*
X056865Y041606*
X056863Y041603*
X056862Y041600*
X056862Y041597*
X056861Y041593*
X056861Y041590*
X056861Y041587*
X056861Y041583*
X056861Y041580*
X056862Y041576*
X056862Y041573*
X056863Y041570*
X056865Y041567*
X056866Y041563*
X056868Y041561*
X056870Y041558*
X056872Y041555*
X056874Y041552*
X056877Y041550*
X056879Y041548*
X056882Y041546*
X056885Y041544*
X056888Y041542*
X056891Y041541*
X056894Y041540*
X056898Y041539*
X056901Y041538*
X056904Y041538*
X056908Y041538*
X056911*
X056915Y041538*
X056918Y041538*
X056921Y041539*
X056925Y041540*
X056928Y041541*
X056931Y041542*
X056934Y041544*
X056937Y041546*
X056940Y041548*
X056942Y041550*
X056945Y041552*
X056947Y041555*
X056949Y041558*
X056951Y041561*
X056953Y041563*
X056954Y041567*
X056956Y041570*
X056957Y041573*
X056957Y041576*
X056958Y041580*
X056958Y041583*
X056959Y041587*
X057159Y018187D02*
D01*
X057158Y018190*
X057158Y018193*
X057157Y018197*
X057157Y018200*
X057156Y018203*
X057154Y018206*
X057153Y018210*
X057151Y018212*
X057149Y018215*
X057147Y018218*
X057145Y018221*
X057142Y018223*
X057140Y018225*
X057137Y018227*
X057134Y018229*
X057131Y018231*
X057128Y018232*
X057125Y018233*
X057121Y018234*
X057118Y018235*
X057115Y018235*
X057111Y018235*
X057108*
X057104Y018235*
X057101Y018235*
X057098Y018234*
X057094Y018233*
X057091Y018232*
X057088Y018231*
X057085Y018229*
X057082Y018227*
X057079Y018225*
X057077Y018223*
X057074Y018221*
X057072Y018218*
X057070Y018215*
X057068Y018212*
X057066Y018210*
X057065Y018206*
X057063Y018203*
X057062Y018200*
X057062Y018197*
X057061Y018193*
X057061Y018190*
X057061Y018187*
X057061Y018183*
X057061Y018180*
X057062Y018176*
X057062Y018173*
X057063Y018170*
X057065Y018167*
X057066Y018163*
X057068Y018161*
X057070Y018158*
X057072Y018155*
X057074Y018152*
X057077Y018150*
X057079Y018148*
X057082Y018146*
X057085Y018144*
X057088Y018142*
X057091Y018141*
X057094Y018140*
X057098Y018139*
X057101Y018138*
X057104Y018138*
X057108Y018138*
X057111*
X057115Y018138*
X057118Y018138*
X057121Y018139*
X057125Y018140*
X057128Y018141*
X057131Y018142*
X057134Y018144*
X057137Y018146*
X057140Y018148*
X057142Y018150*
X057145Y018152*
X057147Y018155*
X057149Y018158*
X057151Y018161*
X057153Y018163*
X057154Y018167*
X057156Y018170*
X057157Y018173*
X057157Y018176*
X057158Y018180*
X057158Y018183*
X057159Y018187*
Y025987D02*
D01*
X057158Y025990*
X057158Y025993*
X057157Y025997*
X057157Y026000*
X057156Y026003*
X057154Y026006*
X057153Y026010*
X057151Y026012*
X057149Y026015*
X057147Y026018*
X057145Y026021*
X057142Y026023*
X057140Y026025*
X057137Y026027*
X057134Y026029*
X057131Y026031*
X057128Y026032*
X057125Y026033*
X057121Y026034*
X057118Y026035*
X057115Y026035*
X057111Y026035*
X057108*
X057104Y026035*
X057101Y026035*
X057098Y026034*
X057094Y026033*
X057091Y026032*
X057088Y026031*
X057085Y026029*
X057082Y026027*
X057079Y026025*
X057077Y026023*
X057074Y026021*
X057072Y026018*
X057070Y026015*
X057068Y026012*
X057066Y026010*
X057065Y026006*
X057063Y026003*
X057062Y026000*
X057062Y025997*
X057061Y025993*
X057061Y025990*
X057061Y025987*
X057061Y025983*
X057061Y025980*
X057062Y025976*
X057062Y025973*
X057063Y025970*
X057065Y025967*
X057066Y025963*
X057068Y025961*
X057070Y025958*
X057072Y025955*
X057074Y025952*
X057077Y025950*
X057079Y025948*
X057082Y025946*
X057085Y025944*
X057088Y025942*
X057091Y025941*
X057094Y025940*
X057098Y025939*
X057101Y025938*
X057104Y025938*
X057108Y025938*
X057111*
X057115Y025938*
X057118Y025938*
X057121Y025939*
X057125Y025940*
X057128Y025941*
X057131Y025942*
X057134Y025944*
X057137Y025946*
X057140Y025948*
X057142Y025950*
X057145Y025952*
X057147Y025955*
X057149Y025958*
X057151Y025961*
X057153Y025963*
X057154Y025967*
X057156Y025970*
X057157Y025973*
X057157Y025976*
X057158Y025980*
X057158Y025983*
X057159Y025987*
M02*