%FSDAX24Y24*%
%MOIN*%
%SFA1B1*%

%IPPOS*%
%ADD21R,0.265900X0.323000*%
%ADD22R,0.088000X0.068000*%
%ADD23R,0.220600X0.102500*%
%ADD24R,0.358400X0.330800*%
%ADD25C,0.078000*%
%ADD26C,0.133000*%
%ADD27C,0.088000*%
%ADD28C,0.058000*%
%LNtlinepcb-1*%
%LPD*%
G54D21*
X019200Y035700D03*
Y041950D03*
G54D22*
X034000Y027600D03*
X035200D03*
X044000Y034200D03*
X042800D03*
G54D23*
X020510Y020498D03*
Y018702D03*
X056910Y039102D03*
Y040898D03*
X057110Y017498D03*
Y015702D03*
Y023502D03*
Y025298D03*
G54D24*
X023601Y019600D03*
X060001Y040000D03*
X060201Y016600D03*
Y024400D03*
G54D25*
X042250Y027600D03*
X043350D03*
X032950Y034200D03*
X031850D03*
X033600Y020000D03*
X027409D03*
X046009Y040200D03*
X052200D03*
X030200D03*
X024009D03*
X054800Y020600D03*
X044640D03*
G54D26*
X065600Y041011D03*
Y039200D03*
X037800Y037200D03*
Y039011D03*
X039000Y022811D03*
Y021000D03*
X015000Y019600D03*
Y021411D03*
X013200Y042011D03*
Y040200D03*
X066400Y018600D03*
Y020411D03*
G54D27*
X037800Y011800D03*
X039800D03*
X038800Y048200D03*
X036800D03*
X066800Y028200D03*
Y030200D03*
X013200Y031000D03*
Y029000D03*
G54D28*
X042913Y030906D03*
M02*